<svg width="69" height="46" viewBox="0 0 69 46" fill="none" xmlns="http://www.w3.org/2000/svg">
<path d="M68.3464 13.8509L66.5274 14.1673C62.8224 14.8124 59.3744 15.7967 56.2364 16.9553V6.97317L55.2684 7.41088C53.0684 8.40349 50.9814 9.4407 48.9924 10.5339L48.9254 0.075716L47.8724 0.751978C42.7494 4.0389 38.0514 7.7739 33.8564 11.8854C29.8154 8.04772 25.2614 4.32102 20.261 0.769611L19.1768 0V10.8399C17.0106 9.61703 14.7897 8.50306 12.5223 7.50734L11.5548 7.08208L11.6003 16.3641C8.2818 15.219 4.9406 14.4712 1.6293 14.133L0 13.9671L13.0427 30.3426L12.9849 18.3555C15.2265 19.2341 17.3008 20.237 19.1779 21.2711V31.6484L19.3131 31.832C23.1479 37.0181 33.2364 45.4537 33.6644 45.8105L34.1004 46.1746L34.5394 45.8126C34.9674 45.4599 45.0634 37.1114 48.9004 31.7231L49.1264 31.3352L49.0654 21.6736C50.8284 20.7422 52.7674 19.8211 54.8634 18.9685V30.3934L68.3464 13.8509ZM56.2364 18.4292C58.9054 17.4189 61.8094 16.5332 64.9124 15.8828L56.2364 26.5267V18.4292ZM3.1482 15.7117C6.1455 16.1452 8.9787 16.8993 11.6054 17.839L11.6467 26.3815L3.1482 15.7117ZM47.5574 2.60133L47.5704 11.3336C44.5014 13.1031 41.6664 15.0219 39.0004 17.1399C38.4194 16.4989 37.8234 15.859 37.2094 15.22C36.4414 14.4193 35.6484 13.6238 34.8374 12.8313C38.6644 9.08182 42.8934 5.68288 47.5574 2.60133ZM24.453 22.8871C23.1685 22.0169 21.8655 21.2058 20.5501 20.4548V13.2452C23.0993 14.7937 25.565 16.4989 27.9315 18.3514C26.7276 19.8149 25.567 21.3271 24.453 22.8871ZM28.9984 19.1998C30.3394 20.2879 31.6474 21.4236 32.9194 22.6039C31.6904 23.8486 30.4924 25.1545 29.3164 26.5277C28.2278 25.6285 26.9764 24.6576 25.5784 23.6661C26.6729 22.132 27.8117 20.6426 28.9984 19.1998ZM37.9394 17.9998C36.5494 19.1511 35.2064 20.3584 33.8984 21.6331C32.5964 20.4227 31.2574 19.2589 29.8844 18.1439C31.1604 16.6452 32.4894 15.1951 33.8714 13.7928C35.3034 15.1869 36.6604 16.5892 37.9394 17.9998ZM37.7324 27.482C35.8914 28.9662 34.6194 30.1663 33.9614 30.8156C33.3284 30.1497 32.1094 28.9226 30.3684 27.4176C31.5274 26.0651 32.7114 24.7779 33.9224 23.552C35.2344 24.8142 36.5044 26.1242 37.7324 27.482ZM29.4774 28.4756C31.9984 30.66 33.4104 32.2479 33.4314 32.2718L33.9314 32.8392L34.4474 32.2863C34.4684 32.2635 35.9434 30.6963 38.6514 28.5161C39.5134 29.5035 40.3524 30.5148 41.1684 31.5478L34.1454 38.2181L27.0136 31.5955C27.8262 30.5179 28.646 29.4786 29.4774 28.4756ZM34.9014 22.5822C36.1824 21.3365 37.4994 20.1561 38.8594 19.0308C40.2554 20.6208 41.5524 22.2181 42.7454 23.8175C42.6164 23.9025 42.4914 23.9866 42.3674 24.0695C41.0434 24.9595 39.8574 25.8235 38.8164 26.6263C37.5554 25.2291 36.2494 23.8808 34.9014 22.5822ZM39.9224 18.1719C42.3174 16.2749 44.8524 14.5407 47.5754 12.932L47.5874 20.9019C46.2484 21.6342 45.0154 22.3664 43.8984 23.0728C42.6804 21.4381 41.3544 19.8035 39.9224 18.1719ZM20.5501 2.67497C25.0973 5.96915 29.2244 9.37639 32.8884 12.849C32.1724 13.575 31.4704 14.3104 30.7844 15.0582C30.1164 15.7884 29.4604 16.5342 28.8164 17.2914C26.1752 15.2221 23.4132 13.3313 20.5501 11.6354V2.67497ZM14.959 17.6627C14.2993 17.3806 13.6374 17.113 12.9746 16.8619L12.9374 9.20629C15.0623 10.1771 17.1438 11.2537 19.1748 12.4289V19.6946C17.7799 18.9478 16.3725 18.2684 14.959 17.6627ZM23.6621 24.0146C22.5779 25.5859 21.5392 27.1998 20.5511 28.8542V22.0522C21.6714 22.7118 22.7122 23.3736 23.6621 24.0146ZM34.1034 44.3792C32.1474 42.7196 24.1463 35.8388 20.6853 31.3653C21.9718 29.0876 23.3389 26.899 24.7875 24.7956C26.1432 25.7581 27.3626 26.7051 28.4261 27.5857C27.4514 28.7629 26.4911 29.9879 25.5402 31.2657L25.1695 31.7636L34.1554 40.109L43.0224 31.6878L42.6384 31.1931C41.7024 29.9868 40.7334 28.8096 39.7354 27.6635C40.7364 26.8918 41.8724 26.0651 43.1324 25.2188C43.2714 25.1244 43.4154 25.0289 43.5594 24.9335C45.0674 27.0432 46.3934 29.1571 47.5284 31.2647C44.0834 35.8854 36.0644 42.731 34.1034 44.3792ZM47.5984 28.5959C46.7274 27.1303 45.7654 25.6606 44.7124 24.1888C45.5994 23.6298 46.5604 23.0541 47.5894 22.4764L47.5984 28.5959ZM49.0524 20.1229L49.0004 12.1084C50.8624 11.0619 52.8104 10.0672 54.8614 9.11502V17.4822C52.7714 18.3099 50.8294 19.2081 49.0524 20.1229Z" fill="#BA8D5B"/>
</svg>
