<svg width="94" height="24" viewBox="0 0 94 24" fill="none" xmlns="http://www.w3.org/2000/svg">
<mask id="mask0_2_4881" style="mask-type:luminance" maskUnits="userSpaceOnUse" x="0" y="0" width="94" height="24">
<path d="M93.8127 0H0V23.6447H93.8127V0Z" fill="white"/>
</mask>
<g mask="url(#mask0_2_4881)">
<path d="M69.281 20.9183C68.4247 21.5175 67.4627 21.3894 66.5808 21.1166C65.7411 20.8571 65.5477 20.024 65.47 19.228C65.4262 18.7826 65.4592 18.3288 65.4485 17.8792C65.3592 14.1417 65.2683 10.4043 65.1757 6.66677C65.1757 6.57007 65.1567 6.47337 65.141 6.32867C64.8724 6.41137 64.8294 6.62627 64.76 6.79077C63.9897 8.61567 63.007 10.3332 62.1077 12.0928C62.0592 12.2029 62.0172 12.3158 61.9821 12.4308C61.516 13.3152 61.0358 14.1913 60.5895 15.0856C60.1969 15.8733 59.6439 16.4419 58.7158 16.4163C57.8066 16.3906 57.2479 15.8451 56.8388 15.0575C55.6866 12.8383 54.3592 10.7125 53.2848 8.44957C53.0608 7.97597 52.8302 7.50567 52.5946 7.01637C52.3012 7.15277 52.4079 7.38417 52.4037 7.56017C52.3156 11.4812 52.2307 15.4019 52.1492 19.3223C52.1293 20.2389 51.5516 21.0464 50.7962 21.234C49.887 21.4604 49.0919 21.1298 48.6473 20.3496C48.434 19.9769 48.3993 19.5586 48.4257 19.1628C48.5406 17.3048 48.4497 15.4435 48.5481 13.5871C48.7084 10.5472 48.739 7.50487 48.796 4.46247C48.8126 3.62847 48.844 2.78717 48.9754 1.96557C49.1192 1.06137 49.7663 0.567165 50.6838 0.522465C51.3152 0.491865 51.95 0.439866 52.5798 0.472066C53.3294 0.510066 54.0146 0.698566 54.403 1.46967C55.6949 4.03187 57.0082 6.58827 58.3157 9.14547C58.5381 9.58017 58.7703 10.01 59.0001 10.4406C59.1447 10.7109 59.2439 10.758 59.4423 10.4406C60.1721 9.28347 60.6647 8.00817 61.306 6.80397C61.9053 5.68407 62.4284 4.51457 62.9838 3.36407C63.3227 2.71767 63.6583 2.06967 64.0013 1.42587C64.3195 0.827466 64.8493 0.558067 65.5014 0.533267C66.1345 0.509267 66.7692 0.518367 67.4024 0.519967C68.657 0.519967 69.3909 1.19607 69.4562 2.44987C69.5265 3.77237 69.5554 5.10297 69.6042 6.43037C69.7596 10.6731 69.9155 14.9173 70.072 19.1628C70.0992 19.881 69.8893 20.4926 69.281 20.9183Z" fill="url(#paint0_linear_2_4881)"/>
<path d="M93.359 6.77799C92.789 4.57199 91.512 2.82479 89.546 1.59499C88.389 0.867588 87.109 0.489088 85.804 0.160988L85.441 0.13869C85.258 0.13369 85.074 0.138689 84.892 0.122889C83.422 -0.0366109 81.932 -0.0746108 80.497 0.230389C77.1437 0.943689 74.6451 2.82479 73.2913 6.03659C72.5161 7.87639 72.3574 9.82039 72.5524 11.804C72.8252 14.586 73.7715 17.0614 75.7295 19.1103C76.3849 19.7955 77.2172 20.2277 77.9702 20.7691C78.005 20.7722 78.0388 20.7826 78.0694 20.7997C79.79 21.5774 81.595 21.8634 83.476 21.7915C87.368 21.6402 90.284 19.8541 92.161 16.4812C93.857 13.4314 94.229 10.1468 93.359 6.77799ZM88.813 11.5081C88.698 12.9908 88.405 14.4124 87.768 15.753C87.185 16.9804 86.363 17.9929 85.081 18.5631C84.724 18.7218 84.367 18.8648 83.964 18.8202C82.692 18.9855 81.475 18.8863 80.403 18.0813C80.325 18.0829 80.248 18.0613 80.181 18.0193C80.115 17.9772 80.062 17.9166 80.03 17.8449L79.909 17.7185C79.365 17.2912 78.8595 16.8324 78.6859 16.12C78.675 16.1111 78.6664 16.0994 78.6612 16.0863C78.656 16.0731 78.6543 16.0588 78.6562 16.0448C78.0685 15.377 77.9123 14.5248 77.7239 13.7074C77.2387 11.6188 77.1743 9.50379 77.7322 7.42599C78.095 6.07299 78.6083 4.75549 79.897 3.95459V3.96209C79.941 3.92319 79.986 3.88599 80.032 3.84799C80.514 3.24799 81.235 3.08759 81.916 2.96199C82.766 2.80579 83.652 2.69339 84.491 3.09179C84.996 3.09179 85.401 3.35129 85.802 3.60579C86.541 3.96289 87.082 4.56379 87.496 5.22499C88.702 7.13999 88.987 9.26819 88.814 11.5048L88.813 11.5081Z" fill="url(#paint1_linear_2_4881)"/>
<path d="M44.6627 13.7803C44.6503 15.3705 44.2734 16.8839 43.4386 18.2674C42.1559 20.3924 40.1747 21.4371 37.8109 21.6875C36.0529 21.8735 34.2503 21.9594 32.5056 21.4933C29.8368 20.7792 27.9821 19.1609 27.1647 16.4657C26.8906 15.595 26.7178 14.6956 26.6498 13.7853C26.6459 9.98007 26.6423 6.17507 26.639 2.37037C26.639 2.28777 26.639 2.20507 26.6432 2.12247L26.6506 2.00097C27.3341 0.274372 29.7541 -0.185227 31.0121 1.16617C31.3667 1.54637 31.4096 2.00257 31.4105 2.47367C31.4171 5.99127 31.4105 9.50887 31.4229 13.0257C31.4229 14.1779 31.6039 15.2879 32.2709 16.2789C32.804 17.0707 33.5635 17.5368 34.4437 17.7608C35.9199 18.136 37.3274 17.9525 38.5184 16.9128C39.5218 16.0375 39.9078 14.8631 39.9169 13.5787C39.9417 9.89737 39.9309 6.21607 39.9284 2.53487C39.9284 1.86617 40.1276 1.29507 40.6516 0.858672C41.4856 0.165272 43.7221 0.358672 44.3891 1.20337C44.6255 1.50167 44.6759 1.87947 44.6759 2.24637C44.68 6.09127 44.6941 9.93617 44.6627 13.7803Z" fill="url(#paint2_linear_2_4881)"/>
<path d="M22.6818 4.19106C22.6769 9.30386 22.6769 14.4169 22.6818 19.5302C22.6818 20.4758 21.9967 21.1436 21.0553 21.1461C20.5649 21.1461 20.0742 21.143 19.5833 21.137C18.4997 21.1213 17.9104 20.5444 17.9096 19.474C17.9096 17.183 17.8947 14.8919 17.9335 12.6025C17.9443 11.9875 17.7757 11.7917 17.1492 11.7908C14.6143 11.7908 12.0794 11.7429 9.54529 11.6834C9.06509 11.6718 8.89819 11.7892 8.91969 12.2892C9.04199 15.0745 9.39239 17.8144 10.4504 20.4204C10.5718 20.7188 10.7653 20.9882 10.9248 21.2717C10.7653 21.6701 10.4958 21.5354 10.2189 21.4271C8.83369 20.8832 7.97249 19.7931 7.23439 18.5756C6.29049 17.0268 5.76319 15.32 5.41529 13.5554C5.10089 12.0393 4.98699 10.4885 5.07639 8.94266C5.14909 7.84006 5.31109 6.93256 5.45489 5.86886C5.47539 5.71946 5.50629 5.57176 5.54749 5.42666C5.56569 5.36386 5.59209 5.30356 5.61119 5.24156C5.72859 4.82386 5.87439 4.41457 6.04749 4.01667C6.14199 3.75057 6.26219 3.49416 6.40629 3.25136C6.47939 3.11966 6.56879 2.99776 6.67239 2.88846C6.83769 2.71326 6.99639 2.53146 7.15749 2.35046C7.39229 2.08756 7.66309 1.85906 7.96169 1.67186C8.39149 1.40246 8.84109 1.17596 9.36679 1.09336C9.91309 1.01066 10.028 1.10156 9.84779 1.61566C9.16099 3.61006 8.99159 5.67796 8.91719 7.76566C8.89569 8.36906 9.10729 8.52697 9.68829 8.52116C12.2042 8.49636 14.7193 8.50877 17.2351 8.52697C17.6162 8.52697 17.8914 8.47736 17.8906 8.03106C17.8906 6.25566 18.1708 4.48286 17.9302 2.70586C17.8897 2.40826 17.8269 2.11076 17.5608 1.96776C17.0566 1.69836 17.3244 1.46116 17.5608 1.23056C18.8733 -0.0398352 21.023 0.305665 22.0239 1.93466C22.4527 2.60926 22.6809 3.39176 22.6818 4.19106Z" fill="url(#paint3_linear_2_4881)"/>
<path d="M2.02319 16.9329C2.23229 17.8909 2.8291 18.6265 3.3539 19.4125C4.0647 20.4778 4.57139 21.3134 5.81109 21.8416C5.86479 21.8705 6.2335 22.0895 6.2872 22.1185L6.48059 22.2011C6.60839 22.2327 6.72879 22.2889 6.83519 22.3664C6.92279 22.4284 7.00869 22.4631 7.07729 22.354C7.22029 22.1267 6.96159 22.0416 6.77319 21.9821C6.68759 21.9515 6.60869 21.9046 6.54089 21.844C5.77809 21.1076 4.9871 20.3935 4.4234 19.4811C4.0399 18.8604 3.69109 18.219 3.32749 17.5867V17.5809C3.08609 16.9649 2.84449 16.3494 2.60259 15.7345C2.51999 15.4667 2.47529 15.3039 2.35469 14.984C2.34809 14.9427 2.34139 14.9204 2.33399 14.8799C2.23249 14.1362 2.08619 13.3992 1.89599 12.6731L1.8455 12.302C1.8455 11.4854 1.84549 10.6689 1.85219 9.85231C1.86129 8.63951 2.23789 7.45791 2.93239 6.46361C3.29769 5.90751 3.7539 5.41691 4.28209 5.01221C4.28209 5.19161 4.30849 5.28091 4.27799 5.34281C3.79109 6.35531 3.66549 7.44631 3.60019 8.54561C3.42169 11.5491 3.95479 14.4394 5.07059 17.2239C5.68709 18.762 6.44419 20.2208 7.79799 21.2738C8.58139 21.8902 9.4767 22.3491 10.4346 22.6251C10.4883 22.8846 10.2462 23.0119 10.1709 23.2144C8.46419 23.9326 6.77649 23.6822 5.12929 23.0375C2.54389 22.0259 0.967794 20.0538 0.129694 17.4743C-0.086006 16.8131 -0.0116051 16.0114 0.175995 15.3832C0.286595 14.9993 0.492094 14.6494 0.773594 14.3658C0.899994 14.241 1.02899 14.1435 1.11329 14.1509C1.19029 14.6043 1.32739 15.0454 1.52069 15.4626C1.55659 15.5436 1.5883 15.6263 1.6158 15.7105C1.6197 15.7201 1.62409 15.7295 1.62899 15.7386C1.66349 15.8931 1.71189 16.0442 1.77359 16.1899C1.79759 16.2469 1.84719 16.2874 1.85629 16.3478C1.97369 16.728 2.0216 16.9263 2.0216 16.9263" fill="url(#paint4_linear_2_4881)"/>
</g>
<defs>
<linearGradient id="paint0_linear_2_4881" x1="72.2026" y1="17.7784" x2="49.5962" y2="5.62557" gradientUnits="userSpaceOnUse">
<stop offset="0.33" stop-color="#9C8837"/>
<stop offset="0.56" stop-color="#F7E59E"/>
<stop offset="0.6" stop-color="#F0DE96"/>
<stop offset="0.67" stop-color="#DECB80"/>
<stop offset="0.75" stop-color="#C1AD5D"/>
<stop offset="0.79" stop-color="#B39F4D"/>
</linearGradient>
<linearGradient id="paint1_linear_2_4881" x1="99.251" y1="20.0743" x2="71.229" y2="3.38839" gradientUnits="userSpaceOnUse">
<stop offset="0.33" stop-color="#9C8837"/>
<stop offset="0.56" stop-color="#F7E59E"/>
<stop offset="0.6" stop-color="#F0DE96"/>
<stop offset="0.67" stop-color="#DECB80"/>
<stop offset="0.75" stop-color="#C1AD5D"/>
<stop offset="0.79" stop-color="#B39F4D"/>
</linearGradient>
<linearGradient id="paint2_linear_2_4881" x1="46.8788" y1="16.6445" x2="24.206" y2="2.31837" gradientUnits="userSpaceOnUse">
<stop offset="0.33" stop-color="#9C8837"/>
<stop offset="0.56" stop-color="#F7E59E"/>
<stop offset="0.6" stop-color="#F0DE96"/>
<stop offset="0.67" stop-color="#DECB80"/>
<stop offset="0.75" stop-color="#C1AD5D"/>
<stop offset="0.79" stop-color="#B39F4D"/>
</linearGradient>
<linearGradient id="paint3_linear_2_4881" x1="18.3346" y1="13.309" x2="3.92399" y2="2.33187" gradientUnits="userSpaceOnUse">
<stop offset="0.33" stop-color="#9C8837"/>
<stop offset="0.56" stop-color="#F7E59E"/>
<stop offset="0.6" stop-color="#F0DE96"/>
<stop offset="0.67" stop-color="#DECB80"/>
<stop offset="0.75" stop-color="#C1AD5D"/>
<stop offset="0.79" stop-color="#B39F4D"/>
</linearGradient>
<linearGradient id="paint4_linear_2_4881" x1="12.7494" y1="20.4047" x2="-1.7658" y2="9.52481" gradientUnits="userSpaceOnUse">
<stop offset="0.33" stop-color="#9C8837"/>
<stop offset="0.56" stop-color="#F7E59E"/>
<stop offset="0.6" stop-color="#F0DE96"/>
<stop offset="0.67" stop-color="#DECB80"/>
<stop offset="0.75" stop-color="#C1AD5D"/>
<stop offset="0.79" stop-color="#B39F4D"/>
</linearGradient>
</defs>
</svg>
