<svg width="48" height="48" viewBox="0 0 48 48" fill="none" xmlns="http://www.w3.org/2000/svg">
<g clip-path="url(#clip0_2_4825)">
<g clip-path="url(#clip1_2_4825)">
<mask id="mask0_2_4825" style="mask-type:luminance" maskUnits="userSpaceOnUse" x="0" y="0" width="48" height="48">
<path d="M0.108765 0.719971H47.1664V47.1487H0.108765V0.719971Z" fill="white"/>
</mask>
<g mask="url(#mask0_2_4825)">
<path d="M32.8026 17.4837C34.3226 19.5216 35.1432 21.9963 35.1419 24.5387C35.1419 31.1382 29.6934 36.5074 22.9969 36.5074C16.2994 36.5074 10.8519 31.1382 10.8519 24.5387C10.8519 17.9382 16.2994 12.5691 22.9969 12.5691C25.7006 12.5691 28.2005 13.4439 30.2204 14.9221L33.7195 11.4739C30.6752 9.04258 26.893 7.72161 22.9969 7.72891C13.5918 7.72891 5.93927 15.2698 5.93927 24.5387C5.93927 33.8076 13.5918 41.3485 22.9969 41.3485C32.402 41.3485 40.0536 33.8076 40.0536 24.5387C40.0536 20.5665 38.6488 16.9126 36.3037 14.0326L32.8026 17.4837Z" fill="#607987" fill-opacity="0.1"/>
<path d="M23.3927 24.2037C24.0859 22.0673 25.2169 20.0989 26.7135 18.4241C25.5884 17.7581 24.3044 17.4078 22.9969 17.4102C19.008 17.4102 15.7636 20.6076 15.7636 24.5387C15.7636 28.4688 19.008 31.6672 22.9969 31.6672C26.9858 31.6672 30.2302 28.4698 30.2302 24.5387C30.2314 23.2731 29.8899 22.0307 29.2418 20.9436C27.5354 22.4181 25.5451 23.5276 23.3937 24.2037H23.3927Z" fill="#607987" fill-opacity="0.1"/>
<path d="M46.897 9.56762C47.019 9.44781 47.1043 9.29568 47.1428 9.1291C47.1813 8.96252 47.1715 8.7884 47.1145 8.62721C47.0565 8.46521 46.9541 8.3228 46.8189 8.21627C46.6838 8.10973 46.5215 8.04337 46.3504 8.02476L42.6348 7.60843L40.2309 5.23978L39.8087 1.57807C39.7884 1.40771 39.7203 1.24657 39.6123 1.11327C39.5043 0.979964 39.3608 0.879942 39.1984 0.824759C39.0353 0.768312 38.8597 0.758485 38.6913 0.796384C38.5229 0.834283 38.3684 0.918405 38.2453 1.03929L34.609 4.62264C34.5091 4.72256 34.4131 4.82639 34.3249 4.93415C30.8649 2.99397 26.9638 1.97718 22.9969 1.98166C16.8843 1.98166 11.136 4.32778 6.81309 8.58803C2.49015 12.8483 0.108765 18.5132 0.108765 24.5387C0.108765 30.5632 2.48917 36.2282 6.81309 40.4894C11.136 44.7497 16.8833 47.0958 22.9969 47.0958C29.1096 47.0958 34.8578 44.7497 39.1808 40.4894C43.5037 36.2282 45.8851 30.5642 45.8851 24.5387C45.8851 20.635 44.8653 16.8166 42.9297 13.4439C43.0443 13.3528 43.155 13.2558 43.2608 13.151L46.897 9.56762ZM41.9618 11.8677C41.7301 12.0965 41.4499 12.2703 41.142 12.3762C40.8341 12.4822 40.5063 12.5177 40.1829 12.4799L39.2817 12.379L42.3086 9.39717L44.2482 9.61464L41.9618 11.8677ZM29.3741 19.58C28.106 20.8262 26.6344 21.8466 25.0227 22.5972C25.7887 21.0029 26.824 19.5528 28.083 18.3105L39.4884 7.07064L40.7775 8.34215L29.3741 19.58ZM22.5894 23.7159L22.5835 23.7208L21.603 24.6876C21.5177 24.7712 21.4499 24.8709 21.4036 24.9809C21.3573 25.091 21.3335 25.2092 21.3334 25.3286C21.3333 25.4479 21.357 25.5662 21.4031 25.6763C21.4492 25.7864 21.5168 25.8862 21.602 25.9699C21.7753 26.1407 22.0091 26.2361 22.2524 26.2354C22.4875 26.2354 22.7226 26.1472 22.9019 25.9709L23.8825 25.004L23.8884 24.9981C26.4373 24.1588 28.7591 22.7444 30.674 20.8643L32.6586 18.908C33.6856 20.6064 34.227 22.554 34.224 24.5387C34.224 30.6386 29.1889 35.6012 22.9979 35.6012C16.8069 35.6012 11.7718 30.6386 11.7718 24.5387C11.7718 18.4388 16.8069 13.4762 22.9979 13.4762C25.057 13.4762 27.0387 14.0208 28.7814 15.0602L26.785 17.0272C24.8857 18.9004 23.4491 21.1905 22.5894 23.7159ZM38.1973 3.6499L38.4177 5.56207L35.3907 8.5459L35.2879 7.65741C35.2505 7.33741 35.2871 7.0131 35.3948 6.70945C35.5024 6.4058 35.6783 6.1309 35.9089 5.9059L38.1973 3.6499ZM44.0464 24.5387C44.0464 35.9764 34.6031 45.2816 22.9969 45.2816C11.3897 45.2816 1.94746 35.9764 1.94746 24.5387C1.94746 13.1 11.3907 3.79488 22.9969 3.79488C26.7096 3.79488 30.336 4.7539 33.5256 6.57202C33.4345 6.98933 33.411 7.42427 33.4609 7.86215L33.7293 10.1828L30.1146 13.7446C27.9925 12.3785 25.5207 11.6553 22.9969 11.662C15.793 11.662 9.93211 17.4386 9.93211 24.5387C9.93211 31.6388 15.793 37.4145 22.9969 37.4145C30.2008 37.4145 36.0617 31.6388 36.0617 24.5387C36.0617 22.0564 35.3476 19.6662 33.9928 17.5915L37.6193 14.0189L39.9752 14.2824C40.405 14.3301 40.8397 14.3102 41.2634 14.2236C43.0877 17.3551 44.048 20.9146 44.0464 24.5387Z" fill="#4E6575"/>
</g>
</g>
</g>
<defs>
<clipPath id="clip0_2_4825">
<rect width="48" height="48" fill="white"/>
</clipPath>
<clipPath id="clip1_2_4825">
<rect width="48" height="48" fill="white"/>
</clipPath>
</defs>
</svg>
