<svg width="22" height="22" viewBox="0 0 22 22" fill="none" xmlns="http://www.w3.org/2000/svg">
<path d="M11 3.20833C6.69682 3.20833 3.20837 6.69678 3.20837 11C3.20837 15.3032 6.69682 18.7917 11 18.7917C15.0495 18.7917 18.3771 15.7028 18.7558 11.7523C18.7734 11.5685 18.679 11.392 18.5162 11.3047C18.3535 11.2174 18.1542 11.2363 18.0108 11.3527C17.2228 11.9922 16.2192 12.375 15.125 12.375C12.5937 12.375 10.5417 10.323 10.5417 7.79167C10.5417 6.28824 11.2651 4.95388 12.3847 4.11736C12.5328 4.00676 12.5999 3.81807 12.555 3.63881C12.5101 3.45956 12.3619 3.3248 12.1792 3.29705C11.7944 3.2386 11.4006 3.20833 11 3.20833Z" fill="#555555"/>
</svg>
