<svg width="48" height="48" viewBox="0 0 48 48" fill="none" xmlns="http://www.w3.org/2000/svg">
<g clip-path="url(#clip0_2_4794)">
<path d="M23.6375 41.4661C33.3198 41.4661 41.1683 33.7215 41.1683 24.1685C41.1683 14.6155 33.3198 6.87183 23.6375 6.87183C13.9552 6.87183 6.10577 14.6155 6.10577 24.1685C6.10577 33.7215 13.9552 41.4651 23.6375 41.4651V41.4661Z" fill="#607987" fill-opacity="0.1"/>
<path d="M32.9966 21.2239L27.1014 20.3785L24.4643 15.1083C24.3872 14.955 24.2689 14.8263 24.1227 14.7365C23.9765 14.6467 23.8081 14.5994 23.6366 14.5999C23.2859 14.5999 22.9646 14.7968 22.8098 15.1073L20.1727 20.3785L14.2775 21.2239C13.5223 21.3316 13.2196 22.2505 13.7662 22.7765L18.0323 26.879L17.0253 32.6723C16.896 33.4149 17.6875 33.983 18.3644 33.6323L23.6366 30.8973L28.9097 33.6323C29.5827 33.9811 30.3791 33.4168 30.2488 32.6723L29.2418 26.879L33.5079 22.7765C34.0545 22.2514 33.7528 21.3326 32.9966 21.2239ZM27.6059 25.9092C27.4991 26.0117 27.4192 26.1388 27.3731 26.2794C27.3269 26.4199 27.3161 26.5697 27.3414 26.7154L28.1143 31.1628L24.0666 29.0635C23.9338 28.9948 23.7865 28.959 23.6371 28.959C23.4876 28.959 23.3403 28.9948 23.2075 29.0635L19.1598 31.1628L19.9337 26.7154C19.9588 26.5695 19.9476 26.4197 19.9011 26.2791C19.8547 26.1385 19.7744 26.0115 19.6673 25.9092L16.3925 22.7599L20.9182 22.1114C21.0657 22.0908 21.206 22.0348 21.3272 21.9481C21.4483 21.8614 21.5466 21.7467 21.6137 21.6137L23.6366 17.568L25.6604 21.6137C25.7274 21.7467 25.8257 21.8615 25.9469 21.9482C26.068 22.0349 26.2084 22.0909 26.3559 22.1114L30.8816 22.7608L27.6059 25.9092Z" fill="#4E6575"/>
<path d="M47.1654 24.1695C47.1654 23.3603 46.7844 22.6677 46.4484 22.0565C45.8861 21.0338 45.8655 20.9427 46.1251 19.7603C46.274 19.0893 46.4415 18.3272 46.2191 17.5709C45.8371 16.2749 44.5068 15.5696 44.1708 14.8379C43.8279 14.0895 44.161 12.6308 43.4342 11.5063C42.7044 10.3768 41.2242 10.0682 40.6952 9.45892C40.1623 8.84765 40.0653 7.34692 39.0495 6.46921C38.0307 5.58855 36.5271 5.70806 35.8423 5.26921C35.1605 4.83231 34.6492 3.41974 33.4168 2.85843C32.689 2.52635 31.9034 2.58316 31.2098 2.63312C30.0147 2.71933 29.9334 2.69386 28.9891 1.98855C28.4288 1.57027 27.794 1.09516 26.9858 0.979572C26.1992 0.868879 25.4665 1.14218 24.8199 1.38414C23.6895 1.80537 23.5857 1.80537 22.4552 1.38414C21.8087 1.14218 21.075 0.868879 20.2884 0.980552C19.4812 1.09516 18.8454 1.57027 18.2851 1.98953C17.3427 2.69288 17.2604 2.71933 16.0644 2.63312C15.3708 2.58316 14.5852 2.52635 13.8573 2.85843C13.1226 3.19345 12.6505 3.82431 12.2332 4.3817C11.523 5.3319 11.4475 5.3799 10.2838 5.63165C9.60297 5.77859 8.83203 5.94512 8.22566 6.46921C7.6193 6.99231 7.34501 7.727 7.10305 8.37647C6.68672 9.49223 6.62599 9.56178 5.58174 10.126C4.9695 10.4571 4.27497 10.8323 3.84003 11.5063C3.11317 12.6299 3.44623 14.0924 3.10338 14.8369C2.76738 15.5686 1.43611 16.2779 1.05603 17.5699C0.680846 18.8434 1.41358 20.158 1.29701 20.973C1.18534 21.7567 0.108765 22.8196 0.108765 24.1685C0.108765 25.5203 1.18436 26.5792 1.29701 27.3649C1.41456 28.1877 0.679867 29.4906 1.05505 30.767C1.43709 32.063 2.76738 32.7683 3.10338 33.5001C3.44623 34.2475 3.11317 35.7071 3.84003 36.8317C4.56983 37.9611 6.04999 38.2697 6.57897 38.879C7.11187 39.4903 7.20885 40.991 8.22468 41.8687C9.24346 42.7494 10.7471 42.6299 11.4319 43.0687C12.1137 43.5056 12.625 44.9182 13.8573 45.4795C15.0789 46.0359 16.4924 45.501 17.2761 45.7303C18.0451 45.9546 18.9395 47.1663 20.2884 47.3574C21.0505 47.4651 21.7499 47.2173 22.4552 46.9538C23.5857 46.5326 23.6885 46.5326 24.819 46.9538C25.4655 47.1957 26.1992 47.469 26.9858 47.3574C28.3337 47.1663 29.234 45.9526 29.9991 45.7303C30.7857 45.5001 32.1924 46.0379 33.4178 45.4795C34.6511 44.9172 35.1615 43.5056 35.8423 43.0697C36.5251 42.6308 38.0317 42.7474 39.0485 41.8697C40.0653 40.991 40.1633 39.4893 40.6942 38.878C41.2262 38.2687 42.7034 37.9621 43.4342 36.8317C44.161 35.7081 43.8289 34.2455 44.1708 33.501C44.5068 32.7693 45.8381 32.061 46.2182 30.768C46.5933 29.4945 45.8606 28.1799 45.9772 27.3649C46.0888 26.5812 47.1654 25.5183 47.1654 24.1695ZM44.1493 27.1112C43.9778 28.3141 44.641 29.6013 44.4471 30.2596C44.2462 30.9414 42.9973 31.6447 42.4898 32.7497C41.9775 33.8645 42.2596 35.2643 41.8786 35.853C41.4965 36.4437 40.0986 36.7699 39.2954 37.6917C38.4911 38.6155 38.3657 40.0388 37.8328 40.4992C37.3078 40.9528 35.8688 40.8813 34.8363 41.5425C33.8106 42.2008 33.2826 43.536 32.643 43.8269C32.0141 44.113 30.6613 43.6379 29.475 43.9837C28.3142 44.3236 27.4217 45.456 26.7223 45.5559C26.0542 45.6519 24.8738 44.8143 23.6366 44.8143C22.3896 44.8143 21.2268 45.6529 20.5509 45.5559C20.2159 45.5079 19.8191 45.2111 19.3989 44.8976C18.4683 44.2021 17.9021 43.8504 16.7393 43.8504C15.9223 43.8504 15.072 44.0277 14.6312 43.8269C13.9906 43.535 13.4665 42.2018 12.4369 41.5425C11.4054 40.8803 9.96738 40.9548 9.44134 40.4992C8.90648 40.0379 8.78501 38.6184 7.97881 37.6917C7.17554 36.769 5.77864 36.4447 5.39562 35.853C5.01652 35.2672 5.29472 33.8605 4.78436 32.7497C4.27693 31.6447 3.02795 30.9423 2.82713 30.2596C2.63317 29.5983 3.29734 28.3229 3.12395 27.1102C2.9535 25.9131 1.95432 24.8924 1.95432 24.1695C1.95432 23.4455 2.9535 22.4258 3.12395 21.2277C3.29636 20.0238 2.63415 18.7366 2.82713 18.0783C3.02795 17.3966 4.27693 16.6932 4.78436 15.5882C5.29668 14.4735 5.01456 13.0746 5.39562 12.4849C5.77766 11.8942 7.17554 11.569 7.97881 10.6462C8.78305 9.72243 8.90844 8.29908 9.44134 7.83867C9.9664 7.38512 11.4054 7.45761 12.4379 6.79541C13.4635 6.13712 13.9915 4.80292 14.6312 4.511C15.2562 4.22692 16.6178 4.69908 17.7992 4.35427C18.96 4.01533 19.8524 2.88194 20.5519 2.783C21.2239 2.687 22.3984 3.52357 23.6376 3.52357C24.8817 3.52357 26.0474 2.68602 26.7233 2.783C27.4315 2.88292 28.2985 4.01043 29.4759 4.35427C30.6515 4.69712 32.019 4.22692 32.644 4.511C33.2836 4.80292 33.8077 6.13614 34.8363 6.79541C35.8688 7.45761 37.3068 7.38414 37.8338 7.83867C38.3677 8.30006 38.4882 9.71949 39.2954 10.6462C40.0986 11.5699 41.4965 11.8932 41.8786 12.4849C42.2577 13.0707 41.9795 14.4774 42.4898 15.5882C42.9973 16.6932 44.2453 17.3966 44.4471 18.0783C44.641 18.7396 43.9768 20.015 44.1502 21.2277C44.3207 22.4248 45.3199 23.4455 45.3199 24.1695C45.3199 24.8924 44.3207 25.9121 44.1493 27.1112Z" fill="#4E6575"/>
</g>
<defs>
<clipPath id="clip0_2_4794">
<rect width="48" height="48" fill="white"/>
</clipPath>
</defs>
</svg>
